<?xml version="1.0" encoding="UTF-8"?>
<svg version="1.1" xmlns="http://www.w3.org/2000/svg" width="512" height="512">
<path d="M0 0 C0.99304964 -0.00583219 1.98609929 -0.01166439 3.00924134 -0.01767331 C4.10824321 -0.01389399 5.20724507 -0.01011467 6.33955002 -0.00622082 C7.5008379 -0.01004636 8.66212577 -0.01387191 9.85860419 -0.01781338 C13.09199699 -0.02637551 16.32524577 -0.02589877 19.55864263 -0.02163279 C23.04206635 -0.01917461 26.5254629 -0.02816852 30.0088768 -0.03567028 C36.83796647 -0.04844594 43.66701688 -0.05020731 50.49611649 -0.04787002 C56.04665175 -0.04608944 61.59717506 -0.0478309 67.14770889 -0.05209446 C67.93668353 -0.05268965 68.72565816 -0.05328484 69.53854112 -0.05389806 C71.14120867 -0.05510978 72.74387622 -0.05632391 74.34654376 -0.05754044 C89.39128504 -0.06842758 104.43600393 -0.06624828 119.48074648 -0.06015559 C133.2470623 -0.05498867 147.0133073 -0.06623383 160.77960911 -0.08525381 C174.90712315 -0.10462346 189.03460367 -0.11288954 203.16213107 -0.10913056 C211.09665298 -0.10721676 219.03111466 -0.10972314 226.96562576 -0.1238451 C233.7224899 -0.13574897 240.47925677 -0.13717521 247.23612222 -0.12505493 C250.68394635 -0.11915843 254.13159247 -0.1180878 257.57940483 -0.13005733 C261.31708371 -0.14046736 265.05428136 -0.13246966 268.7919426 -0.11974621 C269.88202157 -0.12712049 270.97210055 -0.13449478 272.09521222 -0.14209253 C278.36547473 -0.09706234 283.12116547 0.33703503 287.96424484 4.75447559 C291.46664641 9.25254316 292.4458744 12.11291774 292.43323898 17.73567677 C292.43316345 18.85661228 292.43308792 19.9775478 292.4330101 21.13245106 C292.42784882 22.34189884 292.42268753 23.55134663 292.41736984 24.79744434 C292.41524742 26.65554485 292.41524742 26.65554485 292.41308212 28.55118275 C292.40842961 31.84079096 292.39944749 35.13035019 292.38837814 38.4199419 C292.37813989 41.77819183 292.37357933 45.13644893 292.36854172 48.49470997 C292.35750505 55.08131771 292.34076126 61.66789265 292.31971359 68.25447559 C293.19144211 68.24115192 294.06317062 68.22782825 294.96131516 68.21410084 C303.19973854 68.09359056 311.43786348 68.00238299 319.67696762 67.94360256 C323.91227114 67.91236588 328.14684289 67.87003608 332.38172531 67.80183887 C336.47314712 67.73636859 340.56386772 67.70071198 344.65577316 67.68521214 C346.21228186 67.67417495 347.76875466 67.65262127 349.32496262 67.62009525 C364.0498729 67.32473437 364.0498729 67.32473437 369.87311935 72.6772356 C370.5891835 73.4579694 370.5891835 73.4579694 371.31971359 74.25447559 C371.78983871 74.74314106 372.25996384 75.23180653 372.74433517 75.73528004 C374.04601752 77.13409534 375.30865433 78.56893015 376.56971359 80.00447559 C381.14482552 84.90008006 384.87542703 86.38619046 391.52283859 86.94588184 C400.31687813 87.91617391 406.56390905 94.24330398 412.04236984 100.65681934 C415.01886578 104.0519648 418.10498413 107.33753013 421.19471359 110.62947559 C425.88689509 115.63537138 430.54313085 120.66470102 435.09705734 125.79744434 C436.75077183 127.62553997 438.42302295 129.40957686 440.13611984 131.18025684 C449.28811138 140.71719499 454.45686619 148.94034106 454.43323898 162.43147755 C454.43338501 163.13446476 454.43353104 163.83745197 454.43368149 164.56174183 C454.432988 166.87211218 454.42522216 169.18240067 454.41736984 171.49275684 C454.41550366 173.09986801 454.4140807 174.70697974 454.41308212 176.31409168 C454.40927274 180.53416496 454.39945599 184.75420357 454.38837814 188.97426319 C454.37813002 193.28445943 454.37357722 197.5946613 454.36854172 201.90486622 C454.35783226 210.35475188 454.34077486 218.80460942 454.31971359 227.25447559 C455.89172531 227.16746387 455.89172531 227.16746387 457.49549484 227.07869434 C458.87435659 227.03179428 460.25326646 226.98629437 461.63221359 226.94197559 C462.66765305 226.8791338 462.66765305 226.8791338 463.72401047 226.81502247 C465.74549484 226.76619434 465.74549484 226.76619434 469.31971359 227.25447559 C472.50353801 231.0298792 472.69531618 234.13890709 472.68299484 238.98885059 C472.68235031 240.28564747 472.68170578 241.58244434 472.68104172 242.91853809 C472.66859421 243.92642384 472.66859421 243.92642384 472.65589523 244.95467091 C472.63244203 246.98470319 472.63532385 249.01340582 472.64197922 251.04353809 C472.54287488 269.24269816 472.54287488 269.24269816 467.69471359 275.56697559 C467.24869797 276.18185841 466.80268234 276.79674122 466.34315109 277.43025684 C459.60617479 283.50394011 453.04310649 283.81154381 444.38221359 283.64510059 C443.26153488 283.6394408 442.14085617 283.63378101 440.9862175 283.62794971 C437.43026943 283.60567851 433.8753537 283.55549737 430.31971359 283.50447559 C427.8991553 283.48439872 425.4785811 283.46615004 423.05799484 283.44978809 C417.14488617 283.40584406 411.23237366 283.33902433 405.31971359 283.25447559 C405.25767746 283.87266666 405.19564133 284.49085773 405.13172531 285.12778187 C405.04680832 285.93859715 404.96189133 286.74941242 404.87440109 287.58479786 C404.79173996 288.38861393 404.70907883 289.19243 404.62391281 290.02060413 C403.29787106 299.75832418 395.38000903 308.23501015 387.98377609 314.10994434 C377.15992544 321.59059198 366.35348267 323.41156153 353.31971359 322.25447559 C340.65598146 319.70717315 330.84356839 312.65080984 323.31971359 302.25447559 C319.91345776 295.88802124 318.34712245 290.4463376 317.31971359 283.25447559 C254.61971359 283.25447559 191.91971359 283.25447559 127.31971359 283.25447559 C126.98971359 286.22447559 126.65971359 289.19447559 126.31971359 292.25447559 C122.04818263 303.85856947 115.08293674 312.22348787 104.31971359 318.25447559 C93.15909303 323.24082381 80.68236885 324.17258967 68.94471359 320.69197559 C56.74331491 315.97365996 48.24604148 307.66304968 42.36268234 296.13728809 C41.38257132 293.42821717 40.801937 290.89669405 40.25452805 288.07429981 C40.07831421 287.17218769 39.90210037 286.27007557 39.72054672 285.34062672 C39.58827179 284.65219685 39.45599686 283.96376698 39.31971359 283.25447559 C38.06311935 283.27018604 36.80652512 283.28589649 35.51185226 283.30208302 C30.85469078 283.35633743 26.19755728 283.39080935 21.54017258 283.41927052 C19.52352325 283.43436738 17.5069068 283.45484674 15.49036789 283.48079395 C12.59355689 283.51713771 9.69717953 283.53419279 6.80018234 283.54744434 C5.89696747 283.5629282 4.99375259 283.57841206 4.06316757 283.59436512 C2.80220009 283.59470501 2.80220009 283.59470501 1.51575851 283.59505177 C0.40656303 283.60504452 0.40656303 283.60504452 -0.72504044 283.61523914 C-3.34771521 283.13132792 -4.07332528 282.37813633 -5.68028641 280.25447559 C-6.05780983 277.56672382 -6.05780983 277.56672382 -6.06123734 274.25728321 C-6.06969681 273.00378574 -6.07815628 271.75028828 -6.0868721 270.45880604 C-6.08103901 269.06712689 -6.07489449 267.67544901 -6.06847 266.28377247 C-6.07253445 264.8202319 -6.07787562 263.3566944 -6.08440018 261.89316273 C-6.09809479 257.91591676 -6.09276638 253.93890384 -6.08326292 249.96165371 C-6.07567739 245.80302894 -6.08270885 241.64442437 -6.08742142 237.48579884 C-6.09288221 230.50159077 -6.08567891 223.51747782 -6.07139969 216.53328419 C-6.05507252 208.4540102 -6.0603608 200.37496331 -6.07687891 192.29569483 C-6.09048459 185.36399021 -6.09241794 178.43235404 -6.0845629 171.50064039 C-6.07988131 167.35844321 -6.07927479 163.21635284 -6.08917236 159.07416248 C-6.09782647 155.18024449 -6.0918489 151.28661982 -6.07448959 147.39273357 C-6.07051638 145.96204523 -6.07167305 144.53133227 -6.07827759 143.10065365 C-6.08644937 141.15100061 -6.07439477 139.20129374 -6.06123734 137.25166798 C-6.06010626 136.15955257 -6.05897518 135.06743717 -6.05780983 133.94222736 C-5.68028641 131.25447559 -5.68028641 131.25447559 -4.28147697 129.37965107 C-2.68028641 128.25447559 -2.68028641 128.25447559 -0.68028641 128.25447559 C-0.68028641 125.28447559 -0.68028641 122.31447559 -0.68028641 119.25447559 C-1.81208328 119.27767872 -2.94388016 119.30088184 -4.10997391 119.32478809 C-5.59173816 119.3435446 -7.07350953 119.36174493 -8.55528641 119.37947559 C-9.30165359 119.39623341 -10.04802078 119.41299122 -10.81700516 119.43025684 C-12.77223102 119.44787149 -14.72770662 119.35767749 -16.68028641 119.25447559 C-18.68028641 117.25447559 -18.68028641 117.25447559 -19.05528641 114.31697559 C-18.68028641 111.25447559 -18.68028641 111.25447559 -17.10997391 109.57478809 C-12.19580772 106.9043891 -6.10117583 108.10389533 -0.68028641 108.25447559 C-0.68028641 102.97447559 -0.68028641 97.69447559 -0.68028641 92.25447559 C-3.02766922 92.30668262 -3.02766922 92.30668262 -5.42247391 92.35994434 C-7.46673405 92.38807636 -9.51100574 92.41537715 -11.55528641 92.44197559 C-12.58782547 92.46711231 -13.62036453 92.49224903 -14.68419266 92.51814747 C-16.16339188 92.53264942 -16.16339188 92.53264942 -17.67247391 92.54744434 C-18.58367996 92.56315479 -19.49488602 92.57886524 -20.43370438 92.59505177 C-21.17507645 92.48266163 -21.91644852 92.37027149 -22.68028641 92.25447559 C-24.68028641 89.25447559 -24.68028641 89.25447559 -24.36778641 86.12947559 C-23.68028641 83.25447559 -23.68028641 83.25447559 -22.68028641 82.25447559 C-21.04555759 82.16747217 -19.40714586 82.14746497 -17.77013016 82.15681934 C-16.78077469 82.160042 -15.79141922 82.16326466 -14.77208328 82.16658497 C-13.73116531 82.17496387 -12.69024734 82.18334278 -11.61778641 82.19197559 C-10.05060867 82.19874317 -10.05060867 82.19874317 -8.45177078 82.20564747 C-5.86125187 82.21747632 -3.27076219 82.2354124 -0.68028641 82.25447559 C-0.68028641 75.32447559 -0.68028641 68.39447559 -0.68028641 61.25447559 C-2.99028641 61.25447559 -5.30028641 61.25447559 -7.68028641 61.25447559 C-9.68028641 59.25447559 -9.68028641 59.25447559 -9.93028641 56.25447559 C-9.68028641 53.25447559 -9.68028641 53.25447559 -7.68028641 51.25447559 C-4.05528641 51.12947559 -4.05528641 51.12947559 -0.68028641 51.25447559 C-0.68028641 47.29447559 -0.68028641 43.33447559 -0.68028641 39.25447559 C-2.36638016 39.27767872 -4.05247391 39.30088184 -5.78966141 39.32478809 C-8.00319865 39.34354688 -10.21674068 39.36174697 -12.43028641 39.37947559 C-13.54145828 39.39623341 -14.65263016 39.41299122 -15.79747391 39.43025684 C-17.40235672 39.43992481 -17.40235672 39.43992481 -19.03966141 39.44978809 C-20.02418289 39.46026173 -21.00870438 39.47073536 -22.02305984 39.48152637 C-24.74001752 39.24937178 -26.36141154 38.64483833 -28.68028641 37.25447559 C-28.80528641 33.87947559 -28.80528641 33.87947559 -28.68028641 30.25447559 C-26.68028641 28.25447559 -26.68028641 28.25447559 -24.06651688 28.02742481 C-22.9877327 28.03789845 -21.90894852 28.04837208 -20.79747391 28.05916309 C-19.04757156 28.06883106 -19.04757156 28.06883106 -17.26231766 28.07869434 C-16.03899734 28.09545216 -14.81567703 28.11220997 -13.55528641 28.12947559 C-12.32423172 28.13849903 -11.09317703 28.14752247 -9.82481766 28.15681934 C-6.77644826 28.18045011 -3.72846259 28.21339505 -0.68028641 28.25447559 C-0.69188797 27.19486622 -0.70348953 26.13525684 -0.71544266 25.04353809 C-0.72482116 23.65551902 -0.7339213 22.26749804 -0.74278641 20.87947559 C-0.75116531 20.18080372 -0.75954422 19.48213184 -0.76817703 18.76228809 C-0.79356766 13.48103809 -0.79356766 13.48103809 0.31971359 11.25447559 C-0.64966141 11.13072559 -1.61903641 11.00697559 -2.61778641 10.87947559 C-3.62841141 10.67322559 -4.63903641 10.46697559 -5.68028641 10.25447559 C-7.06153659 7.49197524 -6.87107947 5.3071646 -6.68028641 2.25447559 C-4.18650167 -0.23930914 -3.44075617 0.00346083 0 0 Z " fill="#020201" transform="translate(34.6802864074707,94.7455244064331)"/>
<path d="M0 0 C2.0135144 -0.37604749 2.0135144 -0.37604749 4.5453167 -0.37752342 C5.98971542 -0.38925829 5.98971542 -0.38925829 7.46329391 -0.40123022 C8.52864148 -0.39453805 9.59398905 -0.38784589 10.69161987 -0.38095093 C11.81756691 -0.3856309 12.94351395 -0.39031087 14.10358059 -0.39513266 C17.90234172 -0.40716407 21.70074748 -0.39759347 25.49951172 -0.38818359 C28.21250153 -0.39059439 30.92547593 -0.39747647 33.63845825 -0.40411377 C40.25834953 -0.41748213 46.87813901 -0.41455937 53.49803434 -0.40587585 C58.87744285 -0.39911072 64.25682275 -0.3981775 69.63623428 -0.4014473 C70.40080811 -0.401907 71.16538194 -0.40236669 71.95312468 -0.40284032 C73.5061907 -0.40379947 75.0592567 -0.40477211 76.6123227 -0.4057581 C91.19014001 -0.41432137 105.76790082 -0.40446379 120.34570886 -0.388357 C132.85989544 -0.37495832 145.37399853 -0.37727636 157.88818359 -0.39111328 C172.40943341 -0.40716182 186.93063362 -0.41349165 201.45189106 -0.40427649 C202.9999721 -0.40332082 204.54805314 -0.40237771 206.09613419 -0.4014473 C206.8578758 -0.40098447 207.61961741 -0.40052164 208.40444209 -0.40004479 C213.77768535 -0.39745232 219.1508972 -0.40183154 224.52413559 -0.40888596 C231.07209158 -0.41729335 237.61993966 -0.41503715 244.16788326 -0.39904372 C247.51018492 -0.39114973 250.85215719 -0.38969825 254.1944809 -0.39799118 C257.81463974 -0.40614732 261.4342869 -0.39595631 265.05441284 -0.38095093 C266.11529897 -0.38764309 267.17618509 -0.39433526 268.26921928 -0.40123022 C269.23736725 -0.39340697 270.20551523 -0.38558373 271.20300102 -0.37752342 C272.45673022 -0.37679284 272.45673022 -0.37679284 273.73578727 -0.37604749 C276.57805865 0.09600578 277.9495376 0.99364245 280 3 C280.39212898 5.77012718 280.52319404 8.14437448 280.48101807 10.91557312 C280.48443577 11.73076331 280.48785347 12.54595351 280.49137473 13.38584644 C280.49798174 16.12696952 280.47593153 18.86712092 280.45410156 21.6081543 C280.45297369 23.56916277 280.45360576 25.53017293 280.45587158 27.49118042 C280.45702202 32.82362444 280.43345938 38.15571056 280.40557575 43.4880712 C280.38061693 49.05744358 280.37822446 54.62682362 280.37347412 60.19624329 C280.3610281 70.74663941 280.32818445 81.29687028 280.28807616 91.84719354 C280.24340905 103.85668483 280.22138415 115.8661839 280.20129442 127.87573755 C280.15945328 152.58391675 280.08906961 177.29194913 280 202 C278.02 202 276.04 202 274 202 C273.99761165 201.11116969 273.99522329 200.22233938 273.99276257 199.30657482 C273.93367907 177.69971827 273.85817187 156.09297387 273.76428509 134.48623943 C273.7192804 124.03746739 273.67987659 113.58872979 273.65356445 103.13989258 C273.63062214 94.03485242 273.59726654 84.92992084 273.55129844 75.82496673 C273.52731525 71.00198958 273.50861995 66.17912029 273.50238609 61.35608482 C273.4963582 56.8195214 273.4764421 52.28323415 273.44572449 47.74677277 C273.43690728 46.07905555 273.43322925 44.41130229 273.43499184 42.7435627 C273.43663536 40.47155679 273.42002569 38.20040208 273.39872742 35.92851257 C273.39411845 34.65551646 273.38950949 33.38252035 273.38476086 32.0709486 C273.24428607 29.04172204 273.24428607 29.04172204 271.68660545 27.09035683 C268.82662057 25.24143358 265.64219779 25.5933804 262.34741211 25.62768555 C261.56990097 25.62403488 260.79238983 25.62038422 259.99131775 25.61662292 C257.41977133 25.60851279 254.84885406 25.62212984 252.27734375 25.63671875 C250.49280294 25.63723725 248.70826156 25.63671994 246.92372131 25.63520813 C243.18367996 25.63529787 239.44385408 25.64573198 235.70385742 25.66381836 C230.90279326 25.68652204 226.1020436 25.68704689 221.30094051 25.68030071 C217.61643158 25.67696436 213.93199474 25.68358422 210.24749947 25.69342995 C208.4768162 25.69728678 206.70612492 25.69842817 204.93543816 25.6968441 C202.46453348 25.6964745 199.99403691 25.70906314 197.52319336 25.7253418 C196.78703796 25.72286438 196.05088257 25.72038696 195.29241943 25.71783447 C191.19414933 25.63833307 191.19414933 25.63833307 188 28 C187.62995706 30.22658154 187.62995706 30.22658154 187.5859375 32.7890625 C187.52792969 34.20058594 187.52792969 34.20058594 187.46875 35.640625 C187.4378125 36.62546875 187.406875 37.6103125 187.375 38.625 C187.31699219 40.11386719 187.31699219 40.11386719 187.2578125 41.6328125 C187.1633686 44.08835385 187.07780125 46.5438841 187 49 C185.63483749 49.01213028 185.63483749 49.01213028 184.24209595 49.02450562 C175.67779917 49.10234889 167.1136618 49.18960811 158.54957008 49.28752708 C154.14636021 49.33753753 149.74317488 49.38386693 145.33984375 49.421875 C141.09278412 49.45866811 136.84592756 49.50501133 132.59904099 49.55806351 C130.97631761 49.57663935 129.35355065 49.59173545 127.73076248 49.60334396 C125.46303628 49.62015225 123.19577842 49.64917295 120.92822266 49.68115234 C118.98962875 49.70113785 118.98962875 49.70113785 117.01187134 49.7215271 C113.88706395 49.68693383 113.88706395 49.68693383 112 52 C111.66654678 55.19843152 111.66654678 55.19843152 111.68115234 59.02001953 C111.67110672 59.74207581 111.6610611 60.46413208 111.65071106 61.20806885 C111.61976928 63.59964181 111.60281374 65.99110229 111.5859375 68.3828125 C111.56723466 70.03906225 111.54766192 71.69530239 111.5272522 73.35153198 C111.47583145 77.71460309 111.43625914 82.07770512 111.39910889 86.44091797 C111.35913138 90.89168002 111.3080106 95.34231232 111.2578125 99.79296875 C111.16093557 108.52855734 111.07656868 117.26420992 111 126 C110.07514297 126.01030746 109.15028595 126.02061493 108.19740295 126.03123474 C99.50040776 126.12903182 90.80348344 126.23152038 82.10660648 126.33933926 C77.63498006 126.39460877 73.16334715 126.44803507 68.69165039 126.49731445 C64.37982234 126.54489877 60.06807632 126.59723916 55.75634575 126.65294075 C54.10766061 126.67339128 52.45895294 126.69209981 50.81022835 126.70907402 C48.5089004 126.73305859 46.2077289 126.76312077 43.90649414 126.79467773 C42.5941127 126.81022202 41.28173126 126.8257663 39.92958069 126.84178162 C37.11039828 126.66695355 37.11039828 126.66695355 36 128 C35.87579266 130.29983022 35.82195547 132.60347386 35.79467773 134.90649414 C35.78477814 135.62840439 35.77487854 136.35031464 35.76467896 137.09410095 C35.73297701 139.49108551 35.70827241 141.88808992 35.68359375 144.28515625 C35.66303171 145.94283069 35.64203545 147.6004998 35.62062073 149.25816345 C35.5653225 153.62948295 35.51594756 158.00085037 35.46777344 162.37225342 C35.41761484 166.82959274 35.3618994 171.28686213 35.30664062 175.74414062 C35.1989643 184.49603634 35.09805378 193.24799118 35 202 C24.44 202 13.88 202 3 202 C2.67 174.94 2.34 147.88 2 120 C0.68 119.34 -0.64 118.68 -2 118 C-2 115.03 -2 112.06 -2 109 C-3.13179687 109.02320313 -4.26359375 109.04640625 -5.4296875 109.0703125 C-6.91145175 109.08906901 -8.39322312 109.10726934 -9.875 109.125 C-10.62136719 109.14175781 -11.36773438 109.15851563 -12.13671875 109.17578125 C-14.09194461 109.1933959 -16.04742021 109.10320189 -18 109 C-20 107 -20 107 -20.375 104.0625 C-20 101 -20 101 -18.4296875 99.3203125 C-13.51552131 96.64991351 -7.42088942 97.84941974 -2 98 C-2 92.72 -2 87.44 -2 82 C-4.34738281 82.05220703 -4.34738281 82.05220703 -6.7421875 82.10546875 C-8.78644764 82.13360077 -10.83071933 82.16090155 -12.875 82.1875 C-13.90753906 82.21263672 -14.94007812 82.23777344 -16.00390625 82.26367188 C-17.48310547 82.27817383 -17.48310547 82.27817383 -18.9921875 82.29296875 C-19.90339355 82.3086792 -20.81459961 82.32438965 -21.75341797 82.34057617 C-22.49479004 82.22818604 -23.23616211 82.1157959 -24 82 C-26 79 -26 79 -25.6875 75.875 C-25 73 -25 73 -24 72 C-22.36527118 71.91299658 -20.72685945 71.89298937 -19.08984375 71.90234375 C-18.10048828 71.90556641 -17.11113281 71.90878906 -16.09179688 71.91210938 C-15.05087891 71.92048828 -14.00996094 71.92886719 -12.9375 71.9375 C-11.37032227 71.94426758 -11.37032227 71.94426758 -9.77148438 71.95117188 C-7.18096546 71.96300073 -4.59047578 71.98093681 -2 72 C-2 65.07 -2 58.14 -2 51 C-4.31 51 -6.62 51 -9 51 C-11 49 -11 49 -11.25 46 C-11 43 -11 43 -9 41 C-5.375 40.875 -5.375 40.875 -2 41 C-2 37.04 -2 33.08 -2 29 C-3.68609375 29.02320313 -5.3721875 29.04640625 -7.109375 29.0703125 C-9.32291224 29.08907129 -11.53645427 29.10727137 -13.75 29.125 C-14.86117188 29.14175781 -15.97234375 29.15851563 -17.1171875 29.17578125 C-18.72207031 29.18544922 -18.72207031 29.18544922 -20.359375 29.1953125 C-21.34389648 29.20578613 -22.32841797 29.21625977 -23.34277344 29.22705078 C-26.05973111 28.99489618 -27.68112513 28.39036273 -30 27 C-30.125 23.625 -30.125 23.625 -30 20 C-28 18 -28 18 -25.38623047 17.77294922 C-24.30744629 17.78342285 -23.22866211 17.79389648 -22.1171875 17.8046875 C-20.36728516 17.81435547 -20.36728516 17.81435547 -18.58203125 17.82421875 C-17.35871094 17.84097656 -16.13539062 17.85773438 -14.875 17.875 C-13.64394531 17.88402344 -12.41289062 17.89304687 -11.14453125 17.90234375 C-8.09616185 17.92597452 -5.04817618 17.95891946 -2 18 C-2.02320312 16.95199219 -2.04640625 15.90398437 -2.0703125 14.82421875 C-2.08907303 13.44531963 -2.10727293 12.0664128 -2.125 10.6875 C-2.14175781 9.99720703 -2.15851562 9.30691406 -2.17578125 8.59570312 C-2.21217794 4.82864604 -2.14378864 3.21568296 0 0 Z " fill="#313D65" transform="translate(36,105)"/>
<path d="M0 0 C15.675 -0.061875 31.35 -0.12375 47.5 -0.1875 C52.43904297 -0.21481201 57.37808594 -0.24212402 62.46679688 -0.27026367 C68.52441406 -0.28381348 68.52441406 -0.28381348 71.36535645 -0.28633118 C73.33835889 -0.29092078 75.31135322 -0.30143639 77.28430176 -0.31672668 C80.28278088 -0.33879174 83.28074833 -0.34171449 86.27929688 -0.34057617 C87.58516376 -0.35676766 87.58516376 -0.35676766 88.9174118 -0.37328625 C97.41239136 -0.33032213 103.8699406 2.02319209 110 8 C110 8.66 110 9.32 110 10 C109.12525528 10.01030746 108.25051056 10.02061493 107.34925842 10.03123474 C99.12317642 10.1290351 90.89716928 10.23152413 82.6712122 10.33933926 C78.44172386 10.39460687 74.21222867 10.44803285 69.98266602 10.49731445 C65.90425337 10.54490159 61.82592738 10.59724208 57.74761772 10.65294075 C56.18824852 10.67339 54.62885554 10.69209875 53.06944466 10.70907402 C50.8926441 10.73306144 48.71600876 10.76312319 46.53930664 10.79467773 C45.29798477 10.81022202 44.0566629 10.8257663 42.77772522 10.84178162 C40.09256784 10.68551514 40.09256784 10.68551514 39 12 C38.89583207 13.76900035 38.8614618 15.54215708 38.85473633 17.31420898 C38.84835648 18.44886093 38.84197662 19.58351288 38.83540344 20.75254822 C38.83429062 21.98791824 38.8331778 23.22328827 38.83203125 24.49609375 C38.82870285 25.75511002 38.82537445 27.01412628 38.82194519 28.31129456 C38.81687057 30.98043335 38.81410586 33.64947041 38.81469727 36.31860352 C38.8147989 39.74312715 38.80114799 43.16744351 38.78392506 46.59191799 C38.77014884 49.85163564 38.77071674 53.11135092 38.76953125 56.37109375 C38.76234573 57.60443954 38.75516022 58.83778534 38.74775696 60.10850525 C38.7523719 61.81521141 38.7523719 61.81521141 38.75708008 63.55639648 C38.75565506 64.56153793 38.75423004 65.56667938 38.75276184 66.60227966 C38.76427965 69.18484592 38.76427965 69.18484592 41 71 C43.05575377 71.3135213 43.05575377 71.3135213 45.45449829 71.2784729 C46.39121872 71.28963638 47.32793915 71.30079987 48.29304504 71.31230164 C49.32378647 71.31446182 50.35452789 71.31662201 51.41650391 71.31884766 C52.49944229 71.32889328 53.58238068 71.3389389 54.69813538 71.34928894 C58.29093883 71.38027165 61.88366727 71.39719799 65.4765625 71.4140625 C67.96235812 71.43276201 70.44814731 71.45233448 72.93392944 71.4727478 C78.81642444 71.51893939 84.6989241 71.55630131 90.58150613 71.58942068 C97.93461377 71.63135738 105.2876074 71.68694037 112.640625 71.7421875 C125.76036198 71.83910597 138.88013435 71.92242737 152 72 C152 79.59 152 87.18 152 95 C141.605 95.495 141.605 95.495 131 96 C131 107.22 131 118.44 131 130 C141.395 130.495 141.395 130.495 152 131 C152 138.92 152 146.84 152 155 C145.4324896 155.16105611 138.87186996 155.30027424 132.30395508 155.38452148 C130.07194768 155.41964699 127.84010047 155.46735957 125.60864258 155.52807617 C122.39364058 155.61334144 119.18077306 155.65276794 115.96484375 155.68359375 C114.97290512 155.71972275 113.98096649 155.75585175 112.95896912 155.79307556 C106.10716553 155.79692763 106.10716553 155.79692763 102.90457153 153.49172974 C101.06469727 151.62915039 101.06469727 151.62915039 99.53639221 149.77577209 C94.42200352 143.86452844 85.55759865 140.20330481 78 139 C64.63475364 138.03450233 53.97417042 139.70245651 43 148 C42.0925 148.680625 41.185 149.36125 40.25 150.0625 C37.81914427 151.98035763 37.81914427 151.98035763 36 155 C24.12 155 12.24 155 0 155 C0 103.85 0 52.7 0 0 Z " fill="#F9C42D" transform="translate(326,191)"/>
<path d="M0 0 C91.41 0 182.82 0 277 0 C277 9.57 277 19.14 277 29 C255.86844972 29.16208712 234.73704932 29.28698437 213.6050024 29.3626852 C203.7928494 29.3987698 193.98108988 29.44795999 184.16918945 29.52807617 C175.616454 29.59787769 167.06400353 29.64301492 158.51099116 29.65861946 C153.98265048 29.66774036 149.45512503 29.68915297 144.92704582 29.7401104 C140.66279068 29.78770897 136.39968462 29.80226424 132.13518906 29.79175377 C130.57227261 29.79367582 129.00931682 29.80755169 127.44663048 29.83443832 C115.62034145 30.02789283 115.62034145 30.02789283 111.56398201 27.45466805 C109.83017485 25.72561671 108.43314664 23.97746182 107 22 C95.94133537 13.70171522 83.56313909 11.27986032 70 13 C61.54354507 15.22088715 53.3369704 19.6504756 47.953125 26.66796875 C43.55102167 30.14423289 39.62177228 29.54972478 34.1875 29.3125 C32.71893555 29.27866211 32.71893555 29.27866211 31.22070312 29.24414062 C28.81222545 29.18539727 26.40690922 29.10332129 24 29 C23.95101562 27.94039063 23.90203125 26.88078125 23.8515625 25.7890625 C23.77653291 24.40101503 23.70098515 23.01299549 23.625 21.625 C23.5940625 20.92632812 23.563125 20.22765625 23.53125 19.5078125 C23.40500502 15.29814173 23.40500502 15.29814173 21 12 C18.77341846 11.62995706 18.77341846 11.62995706 16.2109375 11.5859375 C14.79941406 11.52792969 14.79941406 11.52792969 13.359375 11.46875 C12.37453125 11.4378125 11.3896875 11.406875 10.375 11.375 C9.38242187 11.33632813 8.38984375 11.29765625 7.3671875 11.2578125 C4.91177058 11.16337339 2.45591043 11.08059119 0 11 C0 7.37 0 3.74 0 0 Z " fill="#E17400" transform="translate(39,317)"/>
<path d="M0 0 C5.61 0 11.22 0 17 0 C17.04898438 1.56492188 17.09796875 3.12984375 17.1484375 4.7421875 C17.22345729 6.78647678 17.29900545 8.83074672 17.375 10.875 C17.4059375 11.90753906 17.436875 12.94007813 17.46875 14.00390625 C17.50742188 14.99003906 17.54609375 15.97617188 17.5859375 16.9921875 C17.63306885 18.35899658 17.63306885 18.35899658 17.68115234 19.75341797 C17.79882511 22.19931186 17.79882511 22.19931186 20 24 C23.80692278 23.78451381 26.40600293 23.35916102 29.6875 21.375 C32 20 32 20 33.9375 20.125 C36 21 36 21 38.9375 22.5625 C41.99772427 23.9989318 43.68320151 24.37906268 47 24 C48.68300669 22.31699331 48.22809077 20.17991273 48.31640625 17.87109375 C48.37924805 16.31938477 48.37924805 16.31938477 48.44335938 14.73632812 C48.48267578 13.64771484 48.52199219 12.55910156 48.5625 11.4375 C48.62727539 9.7987793 48.62727539 9.7987793 48.69335938 8.12695312 C48.79981958 5.41813232 48.90044807 2.70908349 49 0 C54.94 0 60.88 0 67 0 C67 30.03 67 60.06 67 91 C44.89 91 22.78 91 0 91 C0 60.97 0 30.94 0 0 Z " fill="#F6D1A8" transform="translate(233,140)"/>
<path d="M0 0 C17.56765849 -0.40108809 17.56765849 -0.40108809 25.10546875 -0.48828125 C30.23267191 -0.54787275 35.35807526 -0.61805016 40.48388672 -0.75439453 C44.62083108 -0.86373609 48.75584444 -0.92297915 52.89412308 -0.94877243 C54.46592217 -0.96713083 56.03762539 -1.00298432 57.60859299 -1.05730057 C69.86985297 -1.46404404 69.86985297 -1.46404404 75.14093018 2.15875244 C77.66342849 4.65358565 79.84860337 7.18342016 82 10 C83.11750141 11.27743217 84.24086739 12.54981018 85.375 13.8125 C85.91382813 14.44542969 86.45265625 15.07835937 87.0078125 15.73046875 C88.63617363 17.5855233 90.29460803 19.38506118 91.9921875 21.17578125 C92.7958374 22.02789185 92.7958374 22.02789185 93.61572266 22.8972168 C94.68010544 24.02249869 95.74985012 25.14274064 96.82568359 26.25708008 C101.47796441 31.19436413 104 34.96764271 104 42 C69.68 42 35.36 42 0 42 C0 28.14 0 14.28 0 0 Z " fill="#EDEDFC" transform="translate(374,211)"/>
<path d="M0 0 C5.61 0 11.22 0 17 0 C17.06058594 1.56492188 17.12117188 3.12984375 17.18359375 4.7421875 C17.26799066 6.78646819 17.35263908 8.83073852 17.4375 10.875 C17.47681641 11.90753906 17.51613281 12.94007813 17.55664062 14.00390625 C17.59853516 14.99003906 17.64042969 15.97617188 17.68359375 16.9921875 C17.72025146 17.90339355 17.75690918 18.81459961 17.79467773 19.75341797 C17.86577065 22.03483481 17.86577065 22.03483481 19 24 C22.67425333 24.26244667 24.68870239 24.16213417 28 22.4375 C31.61647192 20.70460721 33.19429619 20.92447501 37 22 C37.66 22.350625 38.32 22.70125 39 23.0625 C41.77126744 24.36153161 43.98100619 24.2625212 47 24 C49.48057628 21.51942372 49.29019005 20.63807536 49.4140625 17.2109375 C49.45273437 16.26992188 49.49140625 15.32890625 49.53125 14.359375 C49.5621875 13.37453125 49.593125 12.3896875 49.625 11.375 C49.66367187 10.38242188 49.70234375 9.38984375 49.7421875 8.3671875 C49.83662661 5.91177058 49.91940881 3.45591043 50 1 C55.61 1 61.22 1 67 1 C67 22.78 67 44.56 67 67 C44.89 67 22.78 67 0 67 C0 44.89 0 22.78 0 0 Z " fill="#DDA267" transform="translate(233,240)"/>
<path d="M0 0 C5.61 0 11.22 0 17 0 C17.06058594 1.56492188 17.12117188 3.12984375 17.18359375 4.7421875 C17.26799066 6.78646819 17.35263908 8.83073852 17.4375 10.875 C17.47681641 11.90753906 17.51613281 12.94007813 17.55664062 14.00390625 C17.59853516 14.99003906 17.64042969 15.97617188 17.68359375 16.9921875 C17.72025146 17.90339355 17.75690918 18.81459961 17.79467773 19.75341797 C17.86577065 22.03483481 17.86577065 22.03483481 19 24 C22.85328481 23.61467152 25.64412298 23.1960955 29.0625 21.3125 C32 20 32 20 35.125 20.6875 C36.79469847 21.44975365 38.45115535 22.24608474 40.0625 23.125 C42.49795437 24.22488262 44.35702205 24.21429551 47 24 C48.68300669 22.31699331 48.22809077 20.17991273 48.31640625 17.87109375 C48.37924805 16.31938477 48.37924805 16.31938477 48.44335938 14.73632812 C48.48267578 13.64771484 48.52199219 12.55910156 48.5625 11.4375 C48.62727539 9.7987793 48.62727539 9.7987793 48.69335938 8.12695312 C48.79981958 5.41813232 48.90044807 2.70908349 49 0 C54.61 0 60.22 0 66 0 C66 22.11 66 44.22 66 67 C44.22 67 22.44 67 0 67 C0 44.89 0 22.78 0 0 Z " fill="#B87F46" transform="translate(157,164)"/>
<path d="M0 0 C5.61 0 11.22 0 17 0 C17 22.11 17 44.22 17 67 C-4.78 67 -26.56 67 -49 67 C-49 45.22 -49 23.44 -49 1 C-43.39 1 -37.78 1 -32 1 C-31.93941406 2.49273437 -31.87882812 3.98546875 -31.81640625 5.5234375 C-31.73200827 7.47396862 -31.6473599 9.42448892 -31.5625 11.375 C-31.52318359 12.35984375 -31.48386719 13.3446875 -31.44335938 14.359375 C-31.40146484 15.30039063 -31.35957031 16.24140625 -31.31640625 17.2109375 C-31.27974854 18.08024902 -31.24309082 18.94956055 -31.20532227 19.84521484 C-31.12598456 22.0483262 -31.12598456 22.0483262 -30 24 C-26.32574667 24.26244667 -24.31129761 24.16213417 -21 22.4375 C-17.38352808 20.70460721 -15.80570381 20.92447501 -12 22 C-11.34 22.350625 -10.68 22.70125 -10 23.0625 C-7.26021981 24.34677196 -4.98443364 24.19896224 -2 24 C-0.31699331 22.31699331 -0.77190923 20.17991273 -0.68359375 17.87109375 C-0.62075195 16.31938477 -0.62075195 16.31938477 -0.55664062 14.73632812 C-0.51732422 13.64771484 -0.47800781 12.55910156 -0.4375 11.4375 C-0.37272461 9.7987793 -0.37272461 9.7987793 -0.30664062 8.12695312 C-0.20018042 5.41813232 -0.09955193 2.70908349 0 0 Z " fill="#E4AF7B" transform="translate(206,240)"/>
<path d="M0 0 C5.61 0 11.22 0 17 0 C17.06058594 1.64871094 17.12117188 3.29742187 17.18359375 4.99609375 C17.26797937 7.143239 17.35262835 9.29037391 17.4375 11.4375 C17.47681641 12.52611328 17.51613281 13.61472656 17.55664062 14.73632812 C17.59853516 15.77080078 17.64042969 16.80527344 17.68359375 17.87109375 C17.72025146 18.82943115 17.75690918 19.78776855 17.79467773 20.77514648 C17.75834424 22.97138925 17.75834424 22.97138925 19 24 C22.69251729 24.34348998 24.67546667 24.16902778 28 22.4375 C31.61647192 20.70460721 33.19429619 20.92447501 37 22 C37.66 22.350625 38.32 22.70125 39 23.0625 C41.73978019 24.34677196 44.01556636 24.19896224 47 24 C48.65079442 22.34920558 48.22549447 20.36263821 48.31640625 18.08984375 C48.37924805 16.60581055 48.37924805 16.60581055 48.44335938 15.09179688 C48.48267578 14.05087891 48.52199219 13.00996094 48.5625 11.9375 C48.62727539 10.37032227 48.62727539 10.37032227 48.69335938 8.77148438 C48.79981105 6.18116028 48.90044308 3.59059825 49 1 C54.61 1 60.22 1 66 1 C66 22.78 66 44.56 66 67 C44.22 67 22.44 67 0 67 C0 44.89 0 22.78 0 0 Z " fill="#FCD6AC" transform="translate(81,240)"/>
<path d="M0 0 C7.29324229 4.89927726 12.61916118 12.25409475 14.859375 20.75 C15.8584829 31.20578035 15.20103724 39.84533936 8.90625 48.40625 C2.02586812 56.58572496 -5.82404773 61.77157915 -16.59765625 63.0390625 C-26.37156607 63.57040524 -34.59085986 60.20834588 -42.078125 54 C-46.16761885 50.07349323 -48.83528233 45.90311891 -51.140625 40.75 C-51.57375 39.80125 -52.006875 38.8525 -52.453125 37.875 C-54.51245646 28.51440247 -53.28724012 19.50600326 -48.69921875 11.11328125 C-44.77130839 5.01636238 -40.47289561 1.21331768 -34.140625 -2.25 C-33.109375 -2.86875 -32.078125 -3.4875 -31.015625 -4.125 C-20.64617738 -8.1615915 -9.17845456 -5.3596815 0 0 Z " fill="#020202" transform="translate(415.140625,344.25)"/>
<path d="M0 0 C8.2827743 5.13532006 15.48581701 12.13068322 17.94140625 21.80859375 C19.67371828 33.19476117 18.17887015 42.45593665 12.21484375 52.3203125 C6.77836073 59.63209803 -1.90881612 63.79221983 -10.65625 65.453125 C-20.12842919 66.62092791 -28.85454338 63.74343521 -36.55078125 58.25390625 C-42.4383694 53.21832529 -47.7764655 46.29996645 -48.95605469 38.46069336 C-49.09363973 36.34394247 -49.12419615 34.26154727 -49.09375 32.140625 C-49.08545166 31.39369385 -49.07715332 30.6467627 -49.06860352 29.87719727 C-48.78936581 20.71005198 -45.96638224 13.97100124 -39.6484375 7.2734375 C-28.78741845 -2.65055246 -13.84357399 -6.55262502 0 0 Z " fill="#030202" transform="translate(133.65625,341.546875)"/>
<path d="M0 0 C64.68 0 129.36 0 196 0 C195.34 3.96 194.68 7.92 194 12 C130.97 12 67.94 12 3 12 C2.01 8.04 1.02 4.08 0 0 Z " fill="#7682BA" transform="translate(159,356)"/>
<path d="M0 0 C7.29324229 4.89927726 12.61916118 12.25409475 14.859375 20.75 C15.8584829 31.20578035 15.20103724 39.84533936 8.90625 48.40625 C2.02586812 56.58572496 -5.82404773 61.77157915 -16.59765625 63.0390625 C-26.37156607 63.57040524 -34.59085986 60.20834588 -42.078125 54 C-46.16761885 50.07349323 -48.83528233 45.90311891 -51.140625 40.75 C-51.57375 39.80125 -52.006875 38.8525 -52.453125 37.875 C-54.51245646 28.51440247 -53.28724012 19.50600326 -48.69921875 11.11328125 C-44.77130839 5.01636238 -40.47289561 1.21331768 -34.140625 -2.25 C-33.109375 -2.86875 -32.078125 -3.4875 -31.015625 -4.125 C-20.64617738 -8.1615915 -9.17845456 -5.3596815 0 0 Z M-38.0546875 13.046875 C-42.74104626 19.84320572 -44.07817151 25.51683294 -43.140625 33.75 C-40.4186258 42.29439212 -35.46924211 47.29983937 -27.828125 51.625 C-21.06677828 53.68778374 -15.45779528 53.67611307 -8.953125 50.75 C-2.99685843 47.43887858 1.1484761 43.02302398 4.296875 37 C5.56662326 29.66367669 6.15086242 22.17906905 2.2578125 15.56640625 C-2.70510089 9.120164 -8.0687317 5.41938693 -16.21875 4.34375 C-25.37863373 4.07301452 -32.02828658 5.81519389 -38.0546875 13.046875 Z " fill="#303C63" transform="translate(415.140625,344.25)"/>
<path d="M0 0 C8.2827743 5.13532006 15.48581701 12.13068322 17.94140625 21.80859375 C19.67371828 33.19476117 18.17887015 42.45593665 12.21484375 52.3203125 C6.77836073 59.63209803 -1.90881612 63.79221983 -10.65625 65.453125 C-20.12842919 66.62092791 -28.85454338 63.74343521 -36.55078125 58.25390625 C-42.4383694 53.21832529 -47.7764655 46.29996645 -48.95605469 38.46069336 C-49.09363973 36.34394247 -49.12419615 34.26154727 -49.09375 32.140625 C-49.08545166 31.39369385 -49.07715332 30.6467627 -49.06860352 29.87719727 C-48.78936581 20.71005198 -45.96638224 13.97100124 -39.6484375 7.2734375 C-28.78741845 -2.65055246 -13.84357399 -6.55262502 0 0 Z M-33.96875 15.828125 C-38.36137629 21.39371417 -40.31433221 26.74997232 -40.06640625 33.83203125 C-38.94338241 41.00868838 -35.21310016 46.90580112 -29.46484375 51.26953125 C-23.36318208 55.26262733 -17.81261711 56.44736837 -10.65625 55.453125 C-3.36089063 53.19861616 2.24827689 49.74018501 6.15625 43.078125 C9.36417124 36.19382418 10.05864402 28.21252249 7.45703125 20.9921875 C3.53690749 14.19383334 -2.1061046 9.50550155 -9.65625 7.453125 C-20.31147964 6.19723565 -26.74095908 8.01858506 -33.96875 15.828125 Z " fill="#303C63" transform="translate(133.65625,341.546875)"/>
<path d="M0 0 C2.64 0 5.28 0 8 0 C8.08738991 4.37487331 8.140524 8.74952078 8.1875 13.125 C8.21263672 14.3625 8.23777344 15.6 8.26367188 16.875 C8.27333984 18.07382812 8.28300781 19.27265625 8.29296875 20.5078125 C8.3086792 21.60754395 8.32438965 22.70727539 8.34057617 23.84033203 C7.93513095 27.60181741 7.10211251 29.85056279 5 33 C-0.23116579 36.89342492 -5.84627112 36.38778385 -12.0859375 36.29296875 C-13.14285797 36.28872391 -14.19977844 36.28447906 -15.28872681 36.28010559 C-18.6510814 36.26336702 -22.01282779 36.22572289 -25.375 36.1875 C-27.66014757 36.17244697 -29.94530457 36.15875964 -32.23046875 36.14648438 C-37.82054541 36.11347914 -43.41016972 36.06172935 -49 36 C-49.66 32.04 -50.32 28.08 -51 24 C-49.55641113 23.97494385 -48.11282227 23.9498877 -46.62548828 23.92407227 C-41.28424762 23.83010479 -35.94314027 23.72985829 -30.60205078 23.62768555 C-28.28762931 23.58429624 -25.973175 23.54262416 -23.65869141 23.50268555 C-20.33746427 23.44507968 -17.01640308 23.38135749 -13.6953125 23.31640625 C-12.65569366 23.29969376 -11.61607483 23.28298126 -10.54495239 23.26576233 C-9.10368484 23.2358445 -9.10368484 23.2358445 -7.63330078 23.20532227 C-6.36089035 23.18200584 -6.36089035 23.18200584 -5.06277466 23.15821838 C-2.93681695 23.12570042 -2.93681695 23.12570042 -1 22 C-0.67 14.74 -0.34 7.48 0 0 Z " fill="#7581B9" transform="translate(488,332)"/>
<path d="M0 0 C1.21450836 0.01379196 2.42901672 0.02758392 3.68032837 0.04179382 C4.98770966 0.07287735 6.29509094 0.10396088 7.64208984 0.13598633 C8.99919926 0.1589585 10.35632719 0.18085979 11.71347046 0.20173645 C14.55323624 0.24872633 17.39253279 0.30621053 20.23193359 0.37158203 C23.87471579 0.45495395 27.51744899 0.5159705 31.16077614 0.56966686 C33.96098885 0.61273452 36.76094555 0.66564717 39.56092453 0.72176552 C41.55840607 0.76057475 43.55601605 0.79257825 45.55361938 0.82450867 C46.76182343 0.85406143 47.97002747 0.8836142 49.21484375 0.9140625 C50.81557236 0.94762093 50.81557236 0.94762093 52.44863892 0.9818573 C54.97802734 1.28051758 54.97802734 1.28051758 56.97802734 3.28051758 C57.29052734 6.28051758 57.29052734 6.28051758 56.97802734 9.28051758 C53.48632542 11.60831886 52.10291937 11.53327772 47.9777832 11.53930664 C46.74317856 11.54561096 45.50857391 11.55191528 44.23655701 11.55841064 C42.88866025 11.55483124 41.5407648 11.55072937 40.19287109 11.54614258 C38.81189404 11.54748975 37.43091745 11.54943072 36.04994202 11.55194092 C33.15735351 11.55488876 30.26488859 11.55060488 27.37231445 11.54125977 C23.6608572 11.52985462 19.94968885 11.53643336 16.23824215 11.54840469 C13.38755608 11.55562342 10.5369388 11.55333552 7.68625069 11.54814911 C6.31747974 11.54681319 4.94870259 11.54845831 3.57993889 11.55310822 C1.66958609 11.55817452 -0.24078856 11.54908644 -2.15112305 11.53930664 C-3.23905655 11.53771545 -4.32699005 11.53612427 -5.44789124 11.53448486 C-8.02197266 11.28051758 -8.02197266 11.28051758 -10.02197266 9.28051758 C-10.39697266 6.34301758 -10.39697266 6.34301758 -10.02197266 3.28051758 C-6.87017742 0.07741975 -4.37997761 -0.0753845 0 0 Z " fill="#000001" transform="translate(26.02197265625,202.719482421875)"/>
<path d="M0 0 C3.36417982 2.3471022 4.90113013 4.16484719 6.6875 7.875 C7.52539963 12.64589788 7.17653673 15.93185774 4.9375 20.25 C1.15702757 24.66055117 -1.74645014 26.63291982 -7.625 27.1875 C-12.80973861 26.74811537 -15.72851755 24.67746279 -19.125 20.8125 C-21.55720736 16.84416168 -21.69278959 13.43847512 -21.3125 8.875 C-19.9519175 5.26649859 -18.02986541 2.51038079 -15.125 -0.0625 C-9.93184547 -2.02435838 -5.21853439 -1.77233243 0 0 Z " fill="#F8C32D" transform="translate(403.3125,360.125)"/>
<path d="M0 0 C4.00797136 2.04042178 6.63903006 4.19132929 9 8 C9.72348588 12.7594022 9.57719758 17.40421844 7.9375 21.9375 C4.23181038 25.88226637 0.76260103 27.74819985 -4.5 28.5 C-9.44018267 27.79425962 -13.06591258 26.29815093 -16.328125 22.421875 C-18.95474828 18.31546396 -19.71439663 14.91147681 -19 10 C-14.52572874 1.54859872 -9.40262587 -1.50683107 0 0 Z " fill="#F8C32D" transform="translate(123,359)"/>
<path d="M0 0 C8.61469503 -0.13932292 17.22891558 -0.24578238 25.84446049 -0.31087303 C29.84552505 -0.34212151 33.84581612 -0.38447226 37.84643555 -0.45263672 C41.71092205 -0.51806592 45.57466699 -0.55375478 49.43966484 -0.56926346 C50.91048285 -0.58030808 52.38126248 -0.60187669 53.85176277 -0.63438034 C66.81032553 -0.90929405 66.81032553 -0.90929405 71.45874023 2.91162109 C74 6 74 6 74 8 C49.58 8 25.16 8 0 8 C0 5.36 0 2.72 0 0 Z " fill="#E17400" transform="translate(327,173)"/>
<path d="M0 0 C0.95116196 -0.00953201 1.90232391 -0.01906403 2.88230896 -0.02888489 C4.42762047 -0.02751778 4.42762047 -0.02751778 6.00415039 -0.02612305 C7.05961563 -0.03040817 8.11508087 -0.0346933 9.20252991 -0.03910828 C11.43774701 -0.04485885 13.67298282 -0.04534651 15.90820312 -0.04101562 C19.3343897 -0.03785785 22.75971145 -0.06129885 26.18579102 -0.08666992 C28.35440971 -0.08894299 30.52303074 -0.08964638 32.69165039 -0.08862305 C33.71983383 -0.09783279 34.74801727 -0.10704254 35.80735779 -0.11653137 C37.23882896 -0.10718819 37.23882896 -0.10718819 38.69921875 -0.09765625 C39.53923935 -0.09828568 40.37925995 -0.0989151 41.24473572 -0.0995636 C43.91309767 0.36069295 44.83180336 1.10441365 46.41430664 3.2746582 C46.1697754 6.61658513 45.80887107 7.88009378 43.41430664 10.2746582 C41.54858398 10.59350586 41.54858398 10.59350586 39.25024414 10.6887207 C37.95449463 10.74709106 37.95449463 10.74709106 36.63256836 10.80664062 C35.22515381 10.85268433 35.22515381 10.85268433 33.78930664 10.8996582 C32.34128662 10.95440308 32.34128662 10.95440308 30.86401367 11.01025391 C23.34109556 11.26793769 15.81628732 11.40577202 8.28930664 11.4621582 C7.26498535 11.47520996 6.24066406 11.48826172 5.18530273 11.50170898 C4.2270459 11.50283691 3.26878906 11.50396484 2.28149414 11.50512695 C1.01474854 11.51129028 1.01474854 11.51129028 -0.27758789 11.51757812 C-2.78773851 11.25339367 -4.41752691 10.5347918 -6.58569336 9.2746582 C-6.71069336 5.8996582 -6.71069336 5.8996582 -6.58569336 2.2746582 C-4.11543746 -0.19559769 -3.40051451 0.01866901 0 0 Z " fill="#000000" transform="translate(12.585693359375,122.725341796875)"/>
<path d="M0 0 C0.93121674 -0.00960754 1.86243347 -0.01921509 2.8218689 -0.02911377 C3.83536407 -0.03336365 4.84885925 -0.03761353 5.89306641 -0.04199219 C7.44509262 -0.0505423 7.44509262 -0.0505423 9.0284729 -0.05926514 C11.22258476 -0.06873151 13.41671094 -0.07525559 15.61083984 -0.07910156 C18.97339618 -0.08880591 22.33534124 -0.11981375 25.69775391 -0.15136719 C27.82535443 -0.15789695 29.95295934 -0.16314753 32.08056641 -0.16699219 C33.59473648 -0.18551239 33.59473648 -0.18551239 35.13949585 -0.20440674 C36.54577744 -0.19990509 36.54577744 -0.19990509 37.98046875 -0.1953125 C39.21837662 -0.20078094 39.21837662 -0.20078094 40.48129272 -0.20635986 C43.13150259 0.249103 44.04503784 1.00898718 45.61962891 3.16113281 C45.37509767 6.50305974 45.01419333 7.76656839 42.61962891 10.16113281 C40.60827637 10.42182922 40.60827637 10.42182922 38.10986328 10.43579102 C37.17549438 10.44532303 36.24112549 10.45485504 35.27844238 10.4646759 C34.26697144 10.4637645 33.25550049 10.46285309 32.21337891 10.46191406 C31.17773804 10.46619919 30.14209717 10.47048431 29.07507324 10.47489929 C26.88273857 10.48064914 24.69038481 10.48113806 22.49804688 10.47680664 C19.13329743 10.47364565 15.76942585 10.4971018 12.40478516 10.52246094 C10.27848419 10.52473365 8.15218084 10.52543756 6.02587891 10.52441406 C5.01440796 10.53362381 4.00293701 10.54283356 2.96081543 10.55232239 C2.02644653 10.5460936 1.09207764 10.53986481 0.12939453 10.53344727 C-1.10731995 10.5343914 -1.10731995 10.5343914 -2.36901855 10.53535461 C-3.03276489 10.41186142 -3.69651123 10.28836823 -4.38037109 10.16113281 C-6.38037109 7.16113281 -6.38037109 7.16113281 -6.06787109 4.03613281 C-5.02884981 -0.30886528 -4.19856422 0.03480452 0 0 Z " fill="#000000" transform="translate(16.38037109375,176.8388671875)"/>
<path d="M0 0 C12.54 0 25.08 0 38 0 C37.34 3.96 36.68 7.92 36 12 C24.12 12 12.24 12 0 12 C0 8.04 0 4.08 0 0 Z " fill="#7480B7" transform="translate(39,356)"/>
<path d="M0 0 C1.25472107 0.00607269 1.25472107 0.00607269 2.53479004 0.01226807 C3.39286255 0.01035461 4.25093506 0.00844116 5.13500977 0.00646973 C6.95072726 0.00510763 8.76645449 0.00880579 10.58215332 0.01715088 C13.36736854 0.02785015 16.15193872 0.01725653 18.93713379 0.00445557 C20.69885397 0.00577716 22.46057374 0.00833954 24.22229004 0.01226807 C25.05877075 0.0082196 25.89525146 0.00417114 26.75708008 0 C32.6486217 0.04797473 32.6486217 0.04797473 34.87854004 2.27789307 C35.12854004 5.27789307 35.12854004 5.27789307 34.87854004 8.27789307 C32.24668734 10.90974576 30.33985135 10.52661169 26.75708008 10.55578613 C25.92059937 10.55173767 25.08411865 10.54768921 24.22229004 10.54351807 C23.36421753 10.54543152 22.50614502 10.54734497 21.62207031 10.54931641 C19.80635281 10.5506785 17.99062559 10.54698034 16.17492676 10.53863525 C13.38971154 10.52793598 10.60514136 10.5385296 7.81994629 10.55133057 C6.05822611 10.55000898 4.29650633 10.54744659 2.53479004 10.54351807 C1.28006897 10.54959076 1.28006897 10.54959076 0 10.55578613 C-5.89154162 10.50781141 -5.89154162 10.50781141 -8.12145996 8.27789307 C-8.37145996 5.27789307 -8.37145996 5.27789307 -8.12145996 2.27789307 C-5.48960727 -0.35395963 -3.58277127 0.02917445 0 0 Z " fill="#000000" transform="translate(33.1214599609375,145.72210693359375)"/>
<path d="M0 0 C5.61 0 11.22 0 17 0 C17 0.33 17 0.66 17 1 C12.71 1 8.42 1 4 1 C4 22.45 4 43.9 4 66 C24.46 66 44.92 66 66 66 C66 44.55 66 23.1 66 1 C66.33 1 66.66 1 67 1 C67 22.78 67 44.56 67 67 C44.89 67 22.78 67 0 67 C0 44.89 0 22.78 0 0 Z " fill="#B07F4D" transform="translate(233,240)"/>
<path d="M0 0 C5.61 0 11.22 0 17 0 C17 6.93 17 13.86 17 21 C16.67 21 16.34 21 16 21 C16 14.4 16 7.8 16 1 C11.71 1 7.42 1 3 1 C3 22.45 3 43.9 3 66 C23.79 66 44.58 66 66 66 C66 66.33 66 66.66 66 67 C44.22 67 22.44 67 0 67 C0 44.89 0 22.78 0 0 Z " fill="#E1B98F" transform="translate(81,240)"/>
<path d="M0 0 C1.66192383 -0.00386719 1.66192383 -0.00386719 3.35742188 -0.0078125 C4.51951172 -0.00007813 5.68160156 0.00765625 6.87890625 0.015625 C8.03712891 0.00789063 9.19535156 0.00015625 10.38867188 -0.0078125 C11.49791016 -0.00523437 12.60714844 -0.00265625 13.75 0 C15.27838501 0.00338379 15.27838501 0.00338379 16.83764648 0.00683594 C19.44140625 0.265625 19.44140625 0.265625 22.44140625 2.265625 C22.75390625 5.265625 22.75390625 5.265625 22.44140625 8.265625 C19.17978206 11.52724919 15.20654894 10.56171154 10.765625 10.58789062 C9.50363281 10.58466797 8.24164063 10.58144531 6.94140625 10.578125 C5.04841797 10.60229492 5.04841797 10.60229492 3.1171875 10.62695312 C1.91449219 10.62759766 0.71179688 10.62824219 -0.52734375 10.62890625 C-2.18926758 10.63337769 -2.18926758 10.63337769 -3.88476562 10.63793945 C-4.76712891 10.51507568 -5.64949219 10.39221191 -6.55859375 10.265625 C-8.55859375 7.265625 -8.55859375 7.265625 -8.30859375 4.703125 C-6.82954239 -0.10379193 -4.58166381 0.01015488 0 0 Z " fill="#090701" transform="translate(367.55859375,291.734375)"/>
<path d="M0 0 C5.61 0 11.22 0 17 0 C17 0.33 17 0.66 17 1 C12.38 1 7.76 1 3 1 C3 22.45 3 43.9 3 66 C23.79 66 44.58 66 66 66 C66 66.33 66 66.66 66 67 C44.22 67 22.44 67 0 67 C0 44.89 0 22.78 0 0 Z " fill="#986635" transform="translate(157,164)"/>
<path d="M0 0 C0.99 0 1.98 0 3 0 C3 29.37 3 58.74 3 89 C2.01 89 1.02 89 0 89 C0 59.63 0 30.26 0 0 Z " fill="#F3C699" transform="translate(234,141)"/>
<path d="M0 0 C3.63 0 7.26 0 11 0 C11 7.92 11 15.84 11 24 C7.37 24 3.74 24 0 24 C0 16.08 0 8.16 0 0 Z " fill="#F7AB00" transform="translate(467,322)"/>
<path d="M0 0 C0.99 0 1.98 0 3 0 C3 21.45 3 42.9 3 65 C23.79 65 44.58 65 66 65 C66 65.33 66 65.66 66 66 C44.22 66 22.44 66 0 66 C0 44.22 0 22.44 0 0 Z " fill="#D79F68" transform="translate(157,241)"/>
<path d="M0 0 C3.63 0 7.26 0 11 0 C11 7.59 11 15.18 11 23 C7.37 23 3.74 23 0 23 C0 15.41 0 7.82 0 0 Z " fill="#F9AC00" transform="translate(467,263)"/>
<path d="M0 0 C3.96 0 7.92 0 12 0 C12 5.28 12 10.56 12 16 C8.04 16 4.08 16 0 16 C0 10.72 0 5.44 0 0 Z " fill="#313D65" transform="translate(466,296)"/>
<path d="M0 0 C4.29 0 8.58 0 13 0 C13 3.96 13 7.92 13 12 C10.49348958 11.70703125 7.98697917 11.4140625 5.48046875 11.12109375 C2.86624428 10.84341291 2.86624428 10.84341291 0 12 C0 8.04 0 4.08 0 0 Z " fill="#519AE3" transform="translate(260,140)"/>
<path d="M0 0 C3.96 0 7.92 0 12 0 C12 3.63 12 7.26 12 11 C9.0703125 10.56054688 9.0703125 10.56054688 6.140625 10.12109375 C3.66058453 9.87452051 3.66058453 9.87452051 0 11 C0 7.37 0 3.74 0 0 Z " fill="#F25159" transform="translate(260,241)"/>
<path d="M0 0 C3.96 0 7.92 0 12 0 C12 3.63 12 7.26 12 11 C9.75390625 10.70703125 7.5078125 10.4140625 5.26171875 10.12109375 C2.83182884 9.85244822 2.83182884 9.85244822 0 11 C0 7.37 0 3.74 0 0 Z " fill="#5AABFB" transform="translate(108,241)"/>
<path d="M0 0 C3.96 0 7.92 0 12 0 C12 3.63 12 7.26 12 11 C9.75390625 10.70703125 7.5078125 10.4140625 5.26171875 10.12109375 C2.83182884 9.85244822 2.83182884 9.85244822 0 11 C0 7.37 0 3.74 0 0 Z " fill="#FAC52D" transform="translate(184,241)"/>
<path d="M0 0 C3.96 0 7.92 0 12 0 C12 3.63 12 7.26 12 11 C9.75390625 10.70703125 7.5078125 10.4140625 5.26171875 10.12109375 C2.83182884 9.85244822 2.83182884 9.85244822 0 11 C0 7.37 0 3.74 0 0 Z " fill="#2CD22C" transform="translate(184,165)"/>
<path d="M0 0 C4.29 0 8.58 0 13 0 C13 2.64 13 5.28 13 8 C8.71 8 4.42 8 0 8 C0 5.36 0 2.72 0 0 Z " fill="#303C62" transform="translate(40,338)"/>
<path d="M0 0 C5.7200759 -0.45760607 8.55296727 0.36151868 13 4 C14.875 6.25 14.875 6.25 16 8 C11.82840589 8.59594202 8.40189451 8.99046895 4.84375 6.4765625 C0 1.61296107 0 1.61296107 0 0 Z " fill="#F5AA01" transform="translate(419,192)"/>
</svg>
